<mxfile host="65bd71144e">
    <diagram id="OXUQKvZP6mbADuMd2g_z" name="Page-1">
        <mxGraphModel dx="1635" dy="593" grid="0" gridSize="10" guides="1" tooltips="1" connect="1" arrows="1" fold="1" page="1" pageScale="1" pageWidth="827" pageHeight="1169" background="#F4F1DE" math="0" shadow="0">
            <root>
                <mxCell id="0"/>
                <mxCell id="1" parent="0"/>
                <mxCell id="2" value="Score" style="swimlane;fontStyle=1;align=center;verticalAlign=top;childLayout=stackLayout;horizontal=1;startSize=26;horizontalStack=0;resizeParent=1;resizeParentMax=0;resizeLast=0;collapsible=1;marginBottom=0;rounded=0;sketch=0;fillColor=#F2CC8F;strokeColor=#E07A5F;fontColor=#393C56;" vertex="1" parent="1">
                    <mxGeometry x="-740" y="550" width="180" height="78" as="geometry"/>
                </mxCell>
                <mxCell id="3" value=" " style="text;strokeColor=none;fillColor=none;align=left;verticalAlign=top;spacingLeft=4;spacingRight=4;overflow=hidden;rotatable=0;points=[[0,0.5],[1,0.5]];portConstraint=eastwest;fontColor=#393C56;" vertex="1" parent="2">
                    <mxGeometry y="26" width="180" height="34" as="geometry"/>
                </mxCell>
                <mxCell id="5" value=" " style="text;strokeColor=none;fillColor=none;align=left;verticalAlign=top;spacingLeft=4;spacingRight=4;overflow=hidden;rotatable=0;points=[[0,0.5],[1,0.5]];portConstraint=eastwest;fontColor=#393C56;" vertex="1" parent="2">
                    <mxGeometry y="60" width="180" height="18" as="geometry"/>
                </mxCell>
                <mxCell id="6" value="WordDictionary" style="swimlane;fontStyle=1;align=center;verticalAlign=top;childLayout=stackLayout;horizontal=1;startSize=26;horizontalStack=0;resizeParent=1;resizeParentMax=0;resizeLast=0;collapsible=1;marginBottom=0;rounded=0;sketch=0;fillColor=#F2CC8F;strokeColor=#E07A5F;fontColor=#393C56;" vertex="1" parent="1">
                    <mxGeometry x="-414.99999999999994" y="270" width="180" height="82" as="geometry"/>
                </mxCell>
                <mxCell id="7" value=" " style="text;strokeColor=none;fillColor=none;align=left;verticalAlign=top;spacingLeft=4;spacingRight=4;overflow=hidden;rotatable=0;points=[[0,0.5],[1,0.5]];portConstraint=eastwest;fontColor=#393C56;" vertex="1" parent="6">
                    <mxGeometry y="26" width="180" height="26" as="geometry"/>
                </mxCell>
                <mxCell id="9" value=" " style="text;strokeColor=none;fillColor=none;align=left;verticalAlign=top;spacingLeft=4;spacingRight=4;overflow=hidden;rotatable=0;points=[[0,0.5],[1,0.5]];portConstraint=eastwest;fontColor=#393C56;" vertex="1" parent="6">
                    <mxGeometry y="52" width="180" height="30" as="geometry"/>
                </mxCell>
                <mxCell id="26" style="edgeStyle=orthogonalEdgeStyle;curved=0;rounded=1;sketch=0;orthogonalLoop=1;jettySize=auto;html=1;entryX=-0.007;entryY=0.286;entryDx=0;entryDy=0;exitX=1;exitY=0.5;exitDx=0;exitDy=0;endArrow=open;endFill=0;entryPerimeter=0;labelBackgroundColor=#F4F1DE;strokeColor=#E07A5F;fontColor=#393C56;" edge="1" parent="1" source="13" target="15">
                    <mxGeometry relative="1" as="geometry">
                        <mxPoint x="-494.26" y="589" as="sourcePoint"/>
                    </mxGeometry>
                </mxCell>
                <mxCell id="27" value="creates" style="edgeLabel;html=1;align=center;verticalAlign=middle;resizable=0;points=[];labelBackgroundColor=#F4F1DE;fontColor=#393C56;" vertex="1" connectable="0" parent="26">
                    <mxGeometry x="-0.1832" y="-1" relative="1" as="geometry">
                        <mxPoint x="23" y="12" as="offset"/>
                    </mxGeometry>
                </mxCell>
                <mxCell id="28" value="1" style="edgeLabel;html=1;align=center;verticalAlign=middle;resizable=0;points=[];labelBackgroundColor=#F4F1DE;fontColor=#393C56;" vertex="1" connectable="0" parent="26">
                    <mxGeometry x="-0.9304" relative="1" as="geometry">
                        <mxPoint x="3" y="-9" as="offset"/>
                    </mxGeometry>
                </mxCell>
                <mxCell id="31" value="1..*" style="edgeLabel;html=1;align=center;verticalAlign=middle;resizable=0;points=[];labelBackgroundColor=#F4F1DE;fontColor=#393C56;" vertex="1" connectable="0" parent="26">
                    <mxGeometry x="0.7985" relative="1" as="geometry">
                        <mxPoint x="7" y="-12" as="offset"/>
                    </mxGeometry>
                </mxCell>
                <mxCell id="40" style="edgeStyle=orthogonalEdgeStyle;curved=0;rounded=1;sketch=0;orthogonalLoop=1;jettySize=auto;html=1;entryX=0.5;entryY=0;entryDx=0;entryDy=0;endArrow=open;endFill=0;labelBackgroundColor=#F4F1DE;strokeColor=#E07A5F;fontColor=#393C56;" edge="1" parent="1" source="10" target="2">
                    <mxGeometry relative="1" as="geometry"/>
                </mxCell>
                <mxCell id="41" value="controls" style="edgeLabel;html=1;align=center;verticalAlign=middle;resizable=0;points=[];labelBackgroundColor=#F4F1DE;fontColor=#393C56;" vertex="1" connectable="0" parent="40">
                    <mxGeometry x="-0.08" y="3" relative="1" as="geometry">
                        <mxPoint x="27" as="offset"/>
                    </mxGeometry>
                </mxCell>
                <mxCell id="43" value="1" style="edgeLabel;html=1;align=center;verticalAlign=middle;resizable=0;points=[];labelBackgroundColor=#F4F1DE;fontColor=#393C56;" vertex="1" connectable="0" parent="40">
                    <mxGeometry x="-0.6133" y="1" relative="1" as="geometry">
                        <mxPoint x="-11" as="offset"/>
                    </mxGeometry>
                </mxCell>
                <mxCell id="44" value="1" style="edgeLabel;html=1;align=center;verticalAlign=middle;resizable=0;points=[];labelBackgroundColor=#F4F1DE;fontColor=#393C56;" vertex="1" connectable="0" parent="40">
                    <mxGeometry x="0.4533" relative="1" as="geometry">
                        <mxPoint x="-10" y="4" as="offset"/>
                    </mxGeometry>
                </mxCell>
                <mxCell id="10" value="WordApp" style="swimlane;fontStyle=1;align=center;verticalAlign=top;childLayout=stackLayout;horizontal=1;startSize=26;horizontalStack=0;resizeParent=1;resizeParentMax=0;resizeLast=0;collapsible=1;marginBottom=0;rounded=0;sketch=0;fillColor=#F2CC8F;strokeColor=#E07A5F;fontColor=#393C56;" vertex="1" parent="1">
                    <mxGeometry x="-740" y="410" width="180" height="82" as="geometry"/>
                </mxCell>
                <mxCell id="11" value=" " style="text;strokeColor=none;fillColor=none;align=left;verticalAlign=top;spacingLeft=4;spacingRight=4;overflow=hidden;rotatable=0;points=[[0,0.5],[1,0.5]];portConstraint=eastwest;fontColor=#393C56;" vertex="1" parent="10">
                    <mxGeometry y="26" width="180" height="26" as="geometry"/>
                </mxCell>
                <mxCell id="13" value=" " style="text;strokeColor=none;fillColor=none;align=left;verticalAlign=top;spacingLeft=4;spacingRight=4;overflow=hidden;rotatable=0;points=[[0,0.5],[1,0.5]];portConstraint=eastwest;fontColor=#393C56;" vertex="1" parent="10">
                    <mxGeometry y="52" width="180" height="30" as="geometry"/>
                </mxCell>
                <mxCell id="60" style="edgeStyle=orthogonalEdgeStyle;curved=0;rounded=1;sketch=0;orthogonalLoop=1;jettySize=auto;html=1;exitX=-0.004;exitY=0;exitDx=0;exitDy=0;endArrow=open;endFill=0;exitPerimeter=0;entryX=1;entryY=1.02;entryDx=0;entryDy=0;entryPerimeter=0;labelBackgroundColor=#F4F1DE;strokeColor=#E07A5F;fontColor=#393C56;" edge="1" parent="1" source="17" target="3">
                    <mxGeometry relative="1" as="geometry">
                        <mxPoint x="-560" y="611" as="targetPoint"/>
                        <Array as="points">
                            <mxPoint x="-490" y="610"/>
                        </Array>
                    </mxGeometry>
                </mxCell>
                <mxCell id="62" value="sets" style="edgeLabel;html=1;align=center;verticalAlign=middle;resizable=0;points=[];labelBackgroundColor=#F4F1DE;fontColor=#393C56;" vertex="1" connectable="0" parent="60">
                    <mxGeometry x="-0.0254" y="2" relative="1" as="geometry">
                        <mxPoint x="3" y="-11" as="offset"/>
                    </mxGeometry>
                </mxCell>
                <mxCell id="65" value="1..*" style="edgeLabel;html=1;align=center;verticalAlign=middle;resizable=0;points=[];labelBackgroundColor=#F4F1DE;fontColor=#393C56;" vertex="1" connectable="0" parent="60">
                    <mxGeometry x="-0.7998" y="-1" relative="1" as="geometry">
                        <mxPoint y="10" as="offset"/>
                    </mxGeometry>
                </mxCell>
                <mxCell id="66" value="1" style="edgeLabel;html=1;align=center;verticalAlign=middle;resizable=0;points=[];labelBackgroundColor=#F4F1DE;fontColor=#393C56;" vertex="1" connectable="0" parent="60">
                    <mxGeometry x="0.7299" relative="1" as="geometry">
                        <mxPoint x="-6" y="8" as="offset"/>
                    </mxGeometry>
                </mxCell>
                <mxCell id="14" value="WordManager" style="swimlane;fontStyle=1;align=center;verticalAlign=top;childLayout=stackLayout;horizontal=1;startSize=26;horizontalStack=0;resizeParent=1;resizeParentMax=0;resizeLast=0;collapsible=1;marginBottom=0;rounded=0;sketch=0;fillColor=#F2CC8F;strokeColor=#E07A5F;fontColor=#393C56;" vertex="1" parent="1">
                    <mxGeometry x="-415.72999999999996" y="550" width="180" height="78" as="geometry"/>
                </mxCell>
                <mxCell id="15" value=" " style="text;strokeColor=none;fillColor=none;align=left;verticalAlign=top;spacingLeft=4;spacingRight=4;overflow=hidden;rotatable=0;points=[[0,0.5],[1,0.5]];portConstraint=eastwest;fontColor=#393C56;" vertex="1" parent="14">
                    <mxGeometry y="26" width="180" height="34" as="geometry"/>
                </mxCell>
                <mxCell id="17" value=" " style="text;strokeColor=none;fillColor=none;align=left;verticalAlign=top;spacingLeft=4;spacingRight=4;overflow=hidden;rotatable=0;points=[[0,0.5],[1,0.5]];portConstraint=eastwest;fontColor=#393C56;" vertex="1" parent="14">
                    <mxGeometry y="60" width="180" height="18" as="geometry"/>
                </mxCell>
                <mxCell id="36" style="edgeStyle=orthogonalEdgeStyle;curved=0;rounded=1;sketch=0;orthogonalLoop=1;jettySize=auto;html=1;endArrow=open;endFill=0;exitX=0.5;exitY=0;exitDx=0;exitDy=0;labelBackgroundColor=#F4F1DE;strokeColor=#E07A5F;fontColor=#393C56;" edge="1" parent="1" source="14" target="18">
                    <mxGeometry relative="1" as="geometry"/>
                </mxCell>
                <mxCell id="37" value="1" style="edgeLabel;html=1;align=center;verticalAlign=middle;resizable=0;points=[];labelBackgroundColor=#F4F1DE;fontColor=#393C56;" vertex="1" connectable="0" parent="36">
                    <mxGeometry x="-0.7707" relative="1" as="geometry">
                        <mxPoint x="-10" y="-3" as="offset"/>
                    </mxGeometry>
                </mxCell>
                <mxCell id="38" value="manages" style="edgeLabel;html=1;align=center;verticalAlign=middle;resizable=0;points=[];labelBackgroundColor=#F4F1DE;fontColor=#393C56;" vertex="1" connectable="0" parent="36">
                    <mxGeometry x="-0.0121" y="3" relative="1" as="geometry">
                        <mxPoint x="30" y="2" as="offset"/>
                    </mxGeometry>
                </mxCell>
                <mxCell id="39" value="1" style="edgeLabel;html=1;align=center;verticalAlign=middle;resizable=0;points=[];labelBackgroundColor=#F4F1DE;fontColor=#393C56;" vertex="1" connectable="0" parent="36">
                    <mxGeometry x="0.7121" y="4" relative="1" as="geometry">
                        <mxPoint x="-7" as="offset"/>
                    </mxGeometry>
                </mxCell>
                <mxCell id="56" style="edgeStyle=orthogonalEdgeStyle;curved=0;rounded=1;sketch=0;orthogonalLoop=1;jettySize=auto;html=1;entryX=0.5;entryY=1;entryDx=0;entryDy=0;exitX=0.5;exitY=0;exitDx=0;exitDy=0;endArrow=open;endFill=0;labelBackgroundColor=#F4F1DE;strokeColor=#E07A5F;fontColor=#393C56;" edge="1" parent="1" source="18" target="6">
                    <mxGeometry relative="1" as="geometry">
                        <mxPoint x="-310" y="381" as="sourcePoint"/>
                    </mxGeometry>
                </mxCell>
                <mxCell id="57" value="accesses" style="edgeLabel;html=1;align=center;verticalAlign=middle;resizable=0;points=[];labelBackgroundColor=#F4F1DE;fontColor=#393C56;" vertex="1" connectable="0" parent="56">
                    <mxGeometry x="-0.0282" relative="1" as="geometry">
                        <mxPoint x="26" as="offset"/>
                    </mxGeometry>
                </mxCell>
                <mxCell id="69" value="1..*" style="edgeLabel;html=1;align=center;verticalAlign=middle;resizable=0;points=[];labelBackgroundColor=#F4F1DE;fontColor=#393C56;" vertex="1" connectable="0" parent="56">
                    <mxGeometry x="-0.7333" relative="1" as="geometry">
                        <mxPoint x="-12" y="-2" as="offset"/>
                    </mxGeometry>
                </mxCell>
                <mxCell id="70" value="1" style="edgeLabel;html=1;align=center;verticalAlign=middle;resizable=0;points=[];labelBackgroundColor=#F4F1DE;fontColor=#393C56;" vertex="1" connectable="0" parent="56">
                    <mxGeometry x="0.6063" y="1" relative="1" as="geometry">
                        <mxPoint x="-12" y="-3" as="offset"/>
                    </mxGeometry>
                </mxCell>
                <mxCell id="18" value="WordRecord" style="swimlane;fontStyle=1;align=center;verticalAlign=top;childLayout=stackLayout;horizontal=1;startSize=26;horizontalStack=0;resizeParent=1;resizeParentMax=0;resizeLast=0;collapsible=1;marginBottom=0;rounded=0;sketch=0;fillColor=#F2CC8F;strokeColor=#E07A5F;fontColor=#393C56;" vertex="1" parent="1">
                    <mxGeometry x="-415.72999999999996" y="410" width="180" height="82" as="geometry"/>
                </mxCell>
                <mxCell id="19" value=" " style="text;strokeColor=none;fillColor=none;align=left;verticalAlign=top;spacingLeft=4;spacingRight=4;overflow=hidden;rotatable=0;points=[[0,0.5],[1,0.5]];portConstraint=eastwest;fontColor=#393C56;" vertex="1" parent="18">
                    <mxGeometry y="26" width="180" height="26" as="geometry"/>
                </mxCell>
                <mxCell id="21" value=" " style="text;strokeColor=none;fillColor=none;align=left;verticalAlign=top;spacingLeft=4;spacingRight=4;overflow=hidden;rotatable=0;points=[[0,0.5],[1,0.5]];portConstraint=eastwest;fontColor=#393C56;" vertex="1" parent="18">
                    <mxGeometry y="52" width="180" height="30" as="geometry"/>
                </mxCell>
                <mxCell id="49" style="edgeStyle=orthogonalEdgeStyle;curved=0;rounded=1;sketch=0;orthogonalLoop=1;jettySize=auto;html=1;entryX=0.5;entryY=0;entryDx=0;entryDy=0;endArrow=diamond;endFill=1;labelBackgroundColor=#F4F1DE;strokeColor=#E07A5F;fontColor=#393C56;" edge="1" parent="1" source="22" target="10">
                    <mxGeometry relative="1" as="geometry"/>
                </mxCell>
                <mxCell id="50" value="is contained in" style="edgeLabel;html=1;align=center;verticalAlign=middle;resizable=0;points=[];labelBackgroundColor=#F4F1DE;fontColor=#393C56;" vertex="1" connectable="0" parent="49">
                    <mxGeometry x="-0.2034" y="1" relative="1" as="geometry">
                        <mxPoint x="39" y="3" as="offset"/>
                    </mxGeometry>
                </mxCell>
                <mxCell id="51" value="1" style="edgeLabel;html=1;align=center;verticalAlign=middle;resizable=0;points=[];labelBackgroundColor=#F4F1DE;fontColor=#393C56;" vertex="1" connectable="0" parent="49">
                    <mxGeometry x="0.6241" relative="1" as="geometry">
                        <mxPoint x="-11" as="offset"/>
                    </mxGeometry>
                </mxCell>
                <mxCell id="52" value="1" style="edgeLabel;html=1;align=center;verticalAlign=middle;resizable=0;points=[];labelBackgroundColor=#F4F1DE;fontColor=#393C56;" vertex="1" connectable="0" parent="49">
                    <mxGeometry x="-0.7552" y="2" relative="1" as="geometry">
                        <mxPoint x="-13" as="offset"/>
                    </mxGeometry>
                </mxCell>
                <mxCell id="63" style="edgeStyle=orthogonalEdgeStyle;curved=0;rounded=1;sketch=0;orthogonalLoop=1;jettySize=auto;html=1;entryX=1;entryY=0.5;entryDx=0;entryDy=0;endArrow=open;endFill=0;labelBackgroundColor=#F4F1DE;strokeColor=#E07A5F;fontColor=#393C56;" edge="1" parent="1" source="22" target="19">
                    <mxGeometry relative="1" as="geometry">
                        <Array as="points">
                            <mxPoint x="-650" y="250"/>
                            <mxPoint x="-216" y="250"/>
                            <mxPoint x="-216" y="449"/>
                        </Array>
                    </mxGeometry>
                </mxCell>
                <mxCell id="64" value="renders" style="edgeLabel;html=1;align=center;verticalAlign=middle;resizable=0;points=[];labelBackgroundColor=#F4F1DE;fontColor=#393C56;" vertex="1" connectable="0" parent="63">
                    <mxGeometry x="-0.2604" y="3" relative="1" as="geometry">
                        <mxPoint x="5" y="-7" as="offset"/>
                    </mxGeometry>
                </mxCell>
                <mxCell id="67" value="1" style="edgeLabel;html=1;align=center;verticalAlign=middle;resizable=0;points=[];labelBackgroundColor=#F4F1DE;fontColor=#393C56;" vertex="1" connectable="0" parent="63">
                    <mxGeometry x="-0.9706" relative="1" as="geometry">
                        <mxPoint x="-10" as="offset"/>
                    </mxGeometry>
                </mxCell>
                <mxCell id="68" value="1..*" style="edgeLabel;html=1;align=center;verticalAlign=middle;resizable=0;points=[];labelBackgroundColor=#F4F1DE;fontColor=#393C56;" vertex="1" connectable="0" parent="63">
                    <mxGeometry x="0.9232" y="-1" relative="1" as="geometry">
                        <mxPoint x="-8" y="23" as="offset"/>
                    </mxGeometry>
                </mxCell>
                <mxCell id="22" value="WordPanel" style="swimlane;fontStyle=1;align=center;verticalAlign=top;childLayout=stackLayout;horizontal=1;startSize=26;horizontalStack=0;resizeParent=1;resizeParentMax=0;resizeLast=0;collapsible=1;marginBottom=0;rounded=0;sketch=0;fillColor=#F2CC8F;strokeColor=#E07A5F;fontColor=#393C56;" vertex="1" parent="1">
                    <mxGeometry x="-740" y="270" width="180" height="82" as="geometry"/>
                </mxCell>
                <mxCell id="23" value=" " style="text;strokeColor=none;fillColor=none;align=left;verticalAlign=top;spacingLeft=4;spacingRight=4;overflow=hidden;rotatable=0;points=[[0,0.5],[1,0.5]];portConstraint=eastwest;fontColor=#393C56;" vertex="1" parent="22">
                    <mxGeometry y="26" width="180" height="26" as="geometry"/>
                </mxCell>
                <mxCell id="25" value=" " style="text;strokeColor=none;fillColor=none;align=left;verticalAlign=top;spacingLeft=4;spacingRight=4;overflow=hidden;rotatable=0;points=[[0,0.5],[1,0.5]];portConstraint=eastwest;fontColor=#393C56;" vertex="1" parent="22">
                    <mxGeometry y="52" width="180" height="30" as="geometry"/>
                </mxCell>
                <mxCell id="32" style="edgeStyle=orthogonalEdgeStyle;curved=0;rounded=1;sketch=0;orthogonalLoop=1;jettySize=auto;html=1;entryX=0;entryY=0.5;entryDx=0;entryDy=0;exitX=1;exitY=0.5;exitDx=0;exitDy=0;endArrow=open;endFill=0;labelBackgroundColor=#F4F1DE;strokeColor=#E07A5F;fontColor=#393C56;" edge="1" parent="1" source="11" target="19">
                    <mxGeometry relative="1" as="geometry">
                        <mxPoint x="-520" y="549.73" as="sourcePoint"/>
                        <mxPoint x="-394.26" y="499.9999999999999" as="targetPoint"/>
                    </mxGeometry>
                </mxCell>
                <mxCell id="33" value="creates" style="edgeLabel;html=1;align=center;verticalAlign=middle;resizable=0;points=[];labelBackgroundColor=#F4F1DE;fontColor=#393C56;" vertex="1" connectable="0" parent="32">
                    <mxGeometry x="-0.1832" y="-1" relative="1" as="geometry">
                        <mxPoint x="4" y="8" as="offset"/>
                    </mxGeometry>
                </mxCell>
                <mxCell id="34" value="1" style="edgeLabel;html=1;align=center;verticalAlign=middle;resizable=0;points=[];labelBackgroundColor=#F4F1DE;fontColor=#393C56;" vertex="1" connectable="0" parent="32">
                    <mxGeometry x="-0.9304" relative="1" as="geometry">
                        <mxPoint x="6" y="-9" as="offset"/>
                    </mxGeometry>
                </mxCell>
                <mxCell id="35" value="1..*" style="edgeLabel;html=1;align=center;verticalAlign=middle;resizable=0;points=[];labelBackgroundColor=#F4F1DE;fontColor=#393C56;" vertex="1" connectable="0" parent="32">
                    <mxGeometry x="0.7985" relative="1" as="geometry">
                        <mxPoint x="-4" y="-9" as="offset"/>
                    </mxGeometry>
                </mxCell>
                <mxCell id="45" style="edgeStyle=orthogonalEdgeStyle;curved=0;rounded=1;sketch=0;orthogonalLoop=1;jettySize=auto;html=1;entryX=0;entryY=0.5;entryDx=0;entryDy=0;exitX=1.002;exitY=0.117;exitDx=0;exitDy=0;endArrow=open;endFill=0;exitPerimeter=0;labelBackgroundColor=#F4F1DE;strokeColor=#E07A5F;fontColor=#393C56;" edge="1" parent="1" source="10" target="7">
                    <mxGeometry relative="1" as="geometry">
                        <mxPoint x="-650" y="280" as="sourcePoint"/>
                        <mxPoint x="-534.1399999999999" y="384" as="targetPoint"/>
                    </mxGeometry>
                </mxCell>
                <mxCell id="46" value="creates" style="edgeLabel;html=1;align=center;verticalAlign=middle;resizable=0;points=[];labelBackgroundColor=#F4F1DE;fontColor=#393C56;" vertex="1" connectable="0" parent="45">
                    <mxGeometry x="-0.1832" y="-1" relative="1" as="geometry">
                        <mxPoint x="23" y="-14" as="offset"/>
                    </mxGeometry>
                </mxCell>
                <mxCell id="47" value="1" style="edgeLabel;html=1;align=center;verticalAlign=middle;resizable=0;points=[];labelBackgroundColor=#F4F1DE;fontColor=#393C56;" vertex="1" connectable="0" parent="45">
                    <mxGeometry x="-0.9304" relative="1" as="geometry">
                        <mxPoint x="3" y="-9" as="offset"/>
                    </mxGeometry>
                </mxCell>
                <mxCell id="48" value="1..*" style="edgeLabel;html=1;align=center;verticalAlign=middle;resizable=0;points=[];labelBackgroundColor=#F4F1DE;fontColor=#393C56;" vertex="1" connectable="0" parent="45">
                    <mxGeometry x="0.7985" relative="1" as="geometry">
                        <mxPoint x="10" y="-12" as="offset"/>
                    </mxGeometry>
                </mxCell>
            </root>
        </mxGraphModel>
    </diagram>
</mxfile>